<svg version="1.1" xmlns="http://www.w3.org/2000/svg" xmlns:xlink="http://www.w3.org/1999/xlink" width="256.91764" height="246.77479" viewBox="0,0,256.91764,246.77479"><g transform="translate(-109.91336,-56.61261)"><g data-paper-data="{&quot;isPaintingLayer&quot;:true}" fill="#ff6700" fill-rule="nonzero" stroke="#000000" stroke-width="0" stroke-linecap="butt" stroke-linejoin="miter" stroke-miterlimit="10" stroke-dasharray="" stroke-dashoffset="0" style="mix-blend-mode: normal"><path d="M232.13154,58.7199c16.38413,-6.11848 29.49515,3.01275 29.8485,3.21732c0.40914,0.24177 0.79968,0.52072 0.79968,0.52072c0.26036,0.18597 0.52072,0.37195 0.78108,0.55792c3.01274,2.28745 11.865,9.78212 11.865,25.98027c0,10.69338 -6.06268,16.5887 -10.50741,24.02757c-2.91976,4.89106 -3.34749,10.11687 -3.23591,12.85066c0.35334,9.61475 9.44737,21.44256 19.8246,24.15775c21.27519,5.56056 34.36761,-5.59776 36.17154,-7.2529c0.20457,-0.20457 0.42774,-0.39055 0.6509,-0.57652c2.49203,-2.10148 13.33418,-10.6376 28.78845,-5.63495c12.29275,3.9798 19.71303,14.89635 19.71303,27.1519c0,6.89956 -1.82253,11.71623 -3.71944,14.97074c-0.16737,0.29755 -1.58076,2.6408 -3.60785,4.85387c-7.81082,8.53611 -21.12641,10.56321 -23.67422,11.04673c-7.79222,1.46918 -14.18966,3.14293 -20.27094,6.54621c-4.25876,2.38044 -14.48721,10.11687 -18.16946,19.1737c-5.9325,12.98084 5.13283,25.12481 7.75503,28.23054c0.35334,0.40914 0.39054,0.42774 0.6509,0.7253c0.11158,0.13018 21.46116,20.06637 2.28746,43.74059c-9.48456,11.00953 -28.15615,15.02653 -43.53603,3.23591c-9.61475,-7.53186 -10.84216,-19.8618 -10.84216,-19.8618c0,0 -0.92986,-16.34692 -11.73483,-25.7943c-21.23799,-18.55999 -48.55726,-13.61314 -53.26236,-12.88785c-12.66468,2.56641 -21.79591,9.44737 -26.83575,14.5802c-6.6206,6.15567 -15.2497,9.18701 -23.8602,8.36874c-12.73907,-1.20882 -20.77306,-10.84216 -21.64713,-11.97659c-1.20882,-1.56216 -9.11262,-10.87936 -5.52336,-26.76136c0.37194,-1.69234 0.98565,-3.3103 1.82252,-4.83527c7.69924,-14.04088 20.84745,-14.543 20.84745,-14.543c25.64552,-3.29171 35.52063,-25.40376 36.69226,-28.28633c0.09298,-0.22316 0.18598,-0.42774 0.29756,-0.6509c4.10998,-8.64769 3.3103,-16.27255 2.43623,-22.31663c-0.20457,-1.3576 -0.52072,-2.69659 -0.98565,-3.99839c-3.19871,-8.98245 -8.6291,-13.59455 -9.22421,-25.08761c0.72529,-20.79166 15.97499,-27.89579 21.8703,-29.7555c0.72529,-0.22316 0.53932,-0.11158 2.23166,-0.55792c29.47654,-5.17002 28.52809,-27.35647 45.30275,-33.15879z"/></g></g></svg>