<svg version="1.1" xmlns="http://www.w3.org/2000/svg" xmlns:xlink="http://www.w3.org/1999/xlink" width="355.97298" height="290.91479" viewBox="0,0,355.97298,290.91479"><defs><linearGradient x1="62.34687" y1="180" x2="417.65317" y2="180" gradientUnits="userSpaceOnUse" id="color-1"><stop offset="0" stop-color="#ff7b00"/><stop offset="1" stop-color="#c15e02"/></linearGradient></defs><g transform="translate(-61.68018,-34.54262)"><g data-paper-data="{&quot;isPaintingLayer&quot;:true}" fill="url(#color-1)" fill-rule="nonzero" stroke="none" stroke-width="1" stroke-linecap="butt" stroke-linejoin="miter" stroke-miterlimit="10" stroke-dasharray="" stroke-dashoffset="0" style="mix-blend-mode: normal"><path d="M145.91541,324.28776c-2.62955,-0.60078 -5.13084,-1.63067 -5.57978,-2.23145c-0.38481,-0.60078 -1.21858,-3.17552 -1.85992,-5.66445c-0.8979,-3.86212 -0.96203,-5.1495 -0.32068,-9.01162c0.96203,-5.57863 1.15444,-6.00775 8.33762,-16.90752c5.64392,-8.58249 8.14521,-13.13122 18.47102,-33.47174c4.10467,-8.06755 4.74603,-9.78405 5.83633,-16.73587c1.15444,-7.2093 2.69369,-21.9712 2.30887,-22.57197c-0.12827,-0.17165 -2.30887,1.20155 -4.93844,3.0897c-2.56542,1.97397 -6.92663,4.37707 -9.62032,5.40697c-4.8743,1.80233 -5.00257,1.88815 -8.01694,0.3433c-4.10467,-2.0598 -5.00257,-3.26135 -5.9646,-7.63842c-0.70549,-3.34718 -0.64136,-4.11959 0.57722,-7.29513c1.92406,-5.06368 1.34685,-9.2691 -1.47512,-10.299c-2.30887,-0.85825 -1.28271,-1.7165 -18.02207,15.70597c-6.34941,6.60852 -11.86507,12.27298 -12.24988,12.7021c-0.44895,0.42912 -3.27091,1.7165 -6.34941,2.91805c-5.57978,2.23145 -5.57978,2.23145 -9.87686,0.77243c-2.30887,-0.85825 -4.61776,-1.97397 -5.06671,-2.57475c-0.44895,-0.51495 -1.15444,-3.51883 -1.53926,-6.69435c-0.70549,-5.57863 -0.70549,-5.66445 1.41098,-9.9557c1.09031,-2.4031 2.11647,-4.37707 2.1806,-4.37707c1.28271,0 19.43306,-7.98172 25.39766,-11.15725c7.43972,-3.94795 8.20935,-4.63455 10.71063,-8.75415c2.11647,-3.51883 2.56542,-4.8062 2.05233,-6.00775c-1.28271,-3.0897 -4.5148,-8.7165 -19.3301,3.12734c-12.69882,10.21317 -15.52079,12.10132 -21.61366,14.50442c-12.44228,5.06368 -13.85327,5.32115 -19.94614,2.57475l-5.19498,-2.31728l-2.30887,-6.1794l-2.24474,-6.1794l0.70549,-6.09358l0.76963,-6.09358l5.19498,-5.8361c2.82196,-3.26135 5.51565,-6.1794 5.9646,-6.60852c2.43715,-1.80233 26.03901,-7.5526 39.25092,-9.61239c15.13598,-2.23145 17.98325,4.08195 31.32343,-2.86987l1.85992,-0.94407l-2.05233,-1.80233c-1.9882,-1.7165 -2.75782,-1.7165 -15.26425,-1.3732l-13.14777,0.42912l-1.92406,-3.51883c-1.73166,-3.17552 -1.92406,-3.94795 -1.53926,-7.81008c0.32068,-3.34718 0.8979,-4.97785 2.69369,-7.46677c2.1806,-2.91805 2.56542,-3.17552 7.50385,-3.69047c5.13084,-0.60078 5.32324,-0.51495 11.92921,3.17552c6.73423,3.7763 15.32839,7.03765 21.54953,7.98172c3.20677,0.51495 3.33505,0.51495 5.19498,-2.7464c1.09031,-1.80233 2.11647,-4.63455 2.37301,-6.35104l0.38481,-3.0897l-8.46589,-5.32115c-4.68189,-3.00387 -14.49462,-9.35492 -21.80607,-14.07529l-13.34018,-8.58249l-3.14264,-6.5227c-2.95023,-6.00775 -3.27091,-7.2093 -3.9764,-14.4186c-0.70549,-7.81008 -0.70549,-7.98172 1.02617,-13.47452c2.11647,-6.69435 2.69369,-7.38095 7.82453,-9.9557c3.9764,-1.88815 4.04054,-1.88815 8.27348,-0.3433c2.8861,1.0299 5.51565,2.7464 7.88867,5.1495c7.31145,7.46677 6.99077,6.95182 9.36378,17.5083c1.21858,5.40697 3.27091,13.56034 4.48949,18.10907l2.30887,8.15337l5.77219,5.8361c5.38738,5.57863 5.9646,5.92192 9.17137,6.00775c6.22114,0.08583 6.92663,-2.57475 3.46332,-13.47452c-1.28271,-4.11959 -2.56542,-9.69822 -2.82196,-12.35879l-0.44895,-4.89202l2.62955,-3.00387c3.9764,-4.72037 3.39918,-6.86599 -3.71986,-14.67607c-3.78399,-4.11959 -6.02873,-7.29513 -6.79836,-9.52658c-1.09031,-3.26135 -1.09031,-3.60465 0,-8.32503c1.47512,-6.35104 2.24474,-7.29513 6.67009,-9.18327c3.20677,-1.20155 4.29708,-1.28738 7.31145,-0.51495c3.0785,0.85825 3.78399,1.45902 5.51565,4.72037c1.92406,3.51883 2.05233,4.4629 3.01437,17.76577c0.57722,7.72425 1.28271,14.16112 1.53926,14.33277c1.28271,0.60078 9.68446,8.06755 9.68446,8.58249c0,3.0897 2.1806,16.13509 2.75782,16.65005c2.62955,2.23145 7.0549,-0.17165 14.87944,-7.98172c4.61776,-4.54873 7.56799,-6.86599 10.38995,-7.98172l3.9764,-1.63067l4.68189,2.23145c2.56542,1.28738 6.47768,2.66057 8.72243,3.0897c3.46332,0.77243 4.48949,0.60078 7.43972,-0.85825c3.78399,-1.97397 6.47768,-5.92192 6.28528,-9.18327c-0.06414,-1.11573 -1.41098,-4.03378 -3.01437,-6.43687c-4.29708,-6.60852 -4.74603,-9.61239 -2.50128,-18.88149c0.96203,-4.11959 2.24474,-8.06755 2.75782,-8.66832c0.57722,-0.6866 4.16881,-2.83223 8.01694,-4.8062l6.92663,-3.60465l5.90046,0.94407c4.93844,0.85825 6.47768,1.54485 10.13341,4.4629l4.29708,3.433l1.28271,7.72425c0.76963,4.29125 1.34685,8.2392 1.34685,8.75415c0,0.60078 -1.47512,3.94795 -3.20677,7.46677c-1.79579,3.51883 -3.9764,9.01162 -4.93844,12.27298l-1.66753,5.75027l1.79579,2.57475c1.79579,2.48892 1.9882,2.57475 8.20935,2.57475h6.41355l7.18318,-9.01162l7.24731,-9.01162h8.08107h8.14521l3.27091,4.37707l3.27091,4.37707l-0.44895,6.09358c-0.38481,5.75027 -0.64136,6.5227 -3.9764,12.35879c-1.9882,3.433 -3.71986,6.26523 -3.84813,6.26523c-0.12827,0 -3.91227,0.77243 -8.40175,1.7165c-6.22114,1.3732 -8.78657,2.31728 -10.90303,4.11959c-2.1806,1.80233 -2.75782,2.7464 -2.50128,4.03378c0.19241,0.94407 0.38481,2.31728 0.38481,3.00387c0,0.77243 0.83376,1.97397 1.79579,2.7464c1.53926,1.20155 2.50128,1.28738 6.8625,0.60078c5.77219,-0.94407 3.59159,0.51495 31.42639,-21.62789l17.95794,-14.24695l14.04567,-4.37707c12.12161,-3.69047 15.07184,-4.29125 20.84403,-4.29125c6.09287,0 7.31145,0.25748 11.7368,2.66057c4.36122,2.31728 5.19498,3.17552 6.99077,6.86599c1.9882,4.20542 1.9882,4.20542 1.34685,10.72812c-0.38481,3.60465 -0.96203,6.95182 -1.28271,7.38095c-1.92406,2.57475 -34.56903,10.38482 -62.3397,14.84772l-8.59416,1.3732l-5.9646,4.89202c-3.27091,2.7464 -5.9646,5.4928 -5.9646,6.1794c0,0.85825 2.37301,2.91805 6.02873,5.32115c6.92663,4.63455 7.24731,5.32115 7.88867,16.56422c0.38481,6.69435 0.19241,7.03765 -3.65572,9.01162c-1.21858,0.60078 -4.23294,2.23145 -6.60595,3.69047l-4.42535,2.66057l0.44895,3.86212c0.25654,2.14562 0.57722,4.11959 0.64136,4.29125c0.12827,0.17165 2.82196,1.0299 5.90046,1.80233l5.64392,1.54485l15.00771,-4.29125l15.00771,-4.29125l6.79836,2.31728c3.71986,1.28738 7.50385,3.00387 8.40175,3.69047c1.34685,1.11573 10.13341,10.47065 12.69882,13.47452c2.69369,3.26135 4.61776,26.69157 2.82196,34.58747c-0.76963,3.433 -1.15444,3.86212 -6.67009,7.5526l-5.83633,3.94795l-6.41355,-0.94407c-5.77219,-0.85825 -6.60595,-1.20155 -8.72243,-3.69047c-9.62032,-11.24307 -11.92921,-14.59024 -18.08621,-26.00496l-6.67009,-12.35879l-4.93844,-3.00387l-5.00257,-3.00387l-5.90046,0.85825c-5.38738,0.77243 -6.41355,1.28738 -10.58236,4.72037c-2.56542,2.14562 -4.68189,4.20542 -4.68189,4.54873c0,0.3433 0.44895,2.57475 0.96203,4.89202c0.96203,4.11959 1.21858,4.4629 9.81273,12.10132c4.81017,4.29125 10.00514,8.66832 11.41612,9.61239l2.69369,1.7165l0.44895,7.81008l0.44895,7.81008l-3.01437,5.92192c-3.33505,6.43687 -2.95023,6.26523 -12.8271,7.29513l-4.48949,0.51495l-3.39918,-4.11959c-3.0785,-3.7763 -3.71986,-5.32115 -7.69626,-17.85159c-4.29708,-13.64617 -4.36122,-13.732 -7.43972,-15.96345c-2.05233,-1.54485 -4.93844,-2.57475 -8.27348,-3.17552c-5.06671,-0.85825 -5.19498,-0.85825 -9.23551,1.80233c-3.91227,2.57475 -4.10467,2.83223 -3.78399,5.32115c0.8979,6.60852 1.15444,18.45237 0.51309,19.56809c-0.44895,0.6866 -2.30887,1.88815 -4.23294,2.7464l-3.46332,1.54485l-5.70806,-2.7464c-5.64392,-2.7464 -5.83633,-2.91805 -8.91483,-8.49667c-1.66753,-3.17552 -5.25912,-8.75415 -7.88867,-12.35879c-4.36122,-6.09358 -5.00257,-6.69435 -7.24731,-6.69435c-2.05233,0 -2.56542,0.42912 -3.20677,2.23145c-0.64136,1.88815 -0.51309,3.7763 1.02617,11.84384c1.02617,5.23532 2.11647,10.299 2.50128,11.24307c1.09031,2.83223 11.86507,21.62789 17.63726,30.89699c2.95023,4.72037 5.9646,10.21317 6.73423,12.18715c1.28271,3.51883 1.28271,3.69047 0.12827,7.72425c-1.47512,5.32115 -2.24474,6.43687 -6.09287,8.83997l-3.27091,2.0598l-7.11904,-4.72037l-7.0549,-4.63455l-3.52745,-9.2691c-3.14264,-8.41085 -3.71986,-10.89977 -5.70806,-24.37429c-3.0785,-20.34052 -5.83633,-28.40807 -12.18575,-35.96066c-3.46332,-4.03378 -5.06671,-5.32115 -7.18318,-5.8361c-2.56542,-0.51495 -3.01437,-0.25748 -5.64392,2.57475c-4.04054,4.4629 -3.91227,6.60852 1.21858,15.7918c4.55362,8.32503 7.88867,18.45237 7.18318,22.14284c-1.53926,8.58249 -1.53926,8.58249 -5.51565,11.75802l-3.84813,3.17552l-5.57978,-0.94407c-10.71063,-1.80233 -10.13341,-1.54485 -12.63469,-6.09358c-3.71986,-6.78018 -3.65572,-9.9557 0.51309,-25.31837c3.9764,-14.67607 3.91227,-16.4784 -0.57722,-19.9114c-2.30887,-1.7165 -2.56542,-1.80233 -5.00257,-0.51495c-1.47512,0.77243 -2.95023,1.80233 -3.39918,2.31728c-0.44895,0.51495 -2.62955,6.5227 -4.93844,13.30288l-4.23294,12.44462l-2.24474,21.9712c-2.8861,27.89312 -4.81017,36.56144 -10.32581,45.57307c-1.9882,3.26135 -3.65572,5.92192 -3.71986,5.92192c0,0 -2.50128,0.60078 -5.51565,1.28738c-6.34941,1.45902 -7.0549,1.45902 -13.40432,-0.08583z"/></g></g></svg>